<?xml version="1.0" encoding="UTF-8"?>
<svg width="62.219mm" height="44.065mm" version="1.1" viewBox="0 0 62.219 44.065" xmlns="http://www.w3.org/2000/svg">
 <g transform="translate(-63.316,-9.435)">
  <g fill="none" stroke-linecap="round" stroke-width="2.5">
   <path d="m87.45 34.995 6.2021 5.6557h30.633" stroke="#009454"/>
   <path d="m82.567 21.431v-10.746" stroke="#2084cb"/>
   <path d="m76.714 23.409-7.5985-7.5985" stroke="#e92b11"/>
   <path d="m75.312 29.081h-10.746" stroke="#fdbb0c"/>
   <path d="m77.989 35.967-7.5985 7.5985" stroke="#a24fa6"/>
   <path d="m82.871 37.368v10.746" stroke="#0a9b95"/>
  </g>
  <g fill="#cecece" font-family="Helvetica">
   <text x="90.58136" y="32.54129" font-size="10.583px" stroke="#cecece" stroke-width=".26458" style="font-variant-caps:normal;font-variant-east-asian:normal;font-variant-ligatures:normal;font-variant-numeric:normal;line-height:1.25" xml:space="preserve"><tspan x="90.58136" y="32.54129" fill="#cecece" font-family="Helvetica" font-size="10.583px" stroke="#cecece" stroke-width=".26458" style="font-variant-caps:normal;font-variant-east-asian:normal;font-variant-ligatures:normal;font-variant-numeric:normal">ctoliner</tspan></text>
   <text transform="scale(-1,1)" x="-90.928146" y="37.003048" font-size="21.339px" stroke-width=".53348" style="font-variant-caps:normal;font-variant-east-asian:normal;font-variant-ligatures:normal;font-variant-numeric:normal;line-height:1.25" xml:space="preserve"><tspan x="-90.928146" y="37.003048" fill="#cecece" font-family="Helvetica" font-size="21.339px" stroke-width=".53348" style="font-variant-caps:normal;font-variant-east-asian:normal;font-variant-ligatures:normal;font-variant-numeric:normal">O</tspan></text>
   <text x="112.59663" y="37.641048" font-size="7px" xml:space="preserve"><tspan x="112.59663" y="37.641048" fill="#cecece" font-family="Helvetica" font-size="5.2917px" stroke-width=".26458" style="font-variant-caps:normal;font-variant-east-asian:normal;font-variant-ligatures:normal;font-variant-numeric:normal">Utils</tspan></text>
  </g>
  <g fill="#fff">
   <path d="m83.67 10.722a1.0966 1.0966 0 0 1-1.0925 1.0966 1.0966 1.0966 0 0 1-1.1007-1.0883 1.0966 1.0966 0 0 1 1.0842-1.1048 1.0966 1.0966 0 0 1 1.1089 1.08"/>
   <path d="m70.22 15.83a1.0966 1.0966 0 0 1-1.0925 1.0966 1.0966 1.0966 0 0 1-1.1007-1.0883 1.0966 1.0966 0 0 1 1.0842-1.1048 1.0966 1.0966 0 0 1 1.1089 1.08"/>
   <path d="m65.709 29.097a1.0966 1.0966 0 0 1-1.0925 1.0966 1.0966 1.0966 0 0 1-1.1007-1.0883 1.0966 1.0966 0 0 1 1.0842-1.1048 1.0966 1.0966 0 0 1 1.1089 1.08"/>
   <path d="m71.507 43.515a1.0966 1.0966 0 0 1-1.0925 1.0966 1.0966 1.0966 0 0 1-1.1007-1.0883 1.0966 1.0966 0 0 1 1.0842-1.1048 1.0966 1.0966 0 0 1 1.1089 1.08"/>
   <path d="m83.95 47.995a1.0966 1.0966 0 0 1-1.0925 1.0966 1.0966 1.0966 0 0 1-1.1007-1.0883 1.0966 1.0966 0 0 1 1.0842-1.1048 1.0966 1.0966 0 0 1 1.1089 1.08"/>
   <path d="m103.52 40.668a1.0966 1.0966 0 0 1-1.0925 1.0966 1.0966 1.0966 0 0 1-1.1007-1.0883 1.0966 1.0966 0 0 1 1.0842-1.1048 1.0966 1.0966 0 0 1 1.1089 1.08"/>
   <path d="m114.84 40.668a1.0966 1.0966 0 0 1-1.0925 1.0966 1.0966 1.0966 0 0 1-1.1007-1.0883 1.0966 1.0966 0 0 1 1.0842-1.1048 1.0966 1.0966 0 0 1 1.1089 1.08"/>
   <path d="m125.25 40.668a1.0966 1.0966 0 0 1-1.0925 1.0966 1.0966 1.0966 0 0 1-1.1007-1.0883 1.0966 1.0966 0 0 1 1.0842-1.1048 1.0966 1.0966 0 0 1 1.1089 1.08"/>
  </g>
  <g fill="#cecece" font-family="sans-serif" font-size="3.1682px" stroke-width=".079206">
   <text transform="rotate(-45)" x="28.812618" y="102.68816" style="line-height:1.25" xml:space="preserve"><tspan x="28.812618" y="102.68816" fill="#cecece" font-family="'Helvetica Light'" font-size="3.1682px" stroke-width=".079206" style="font-variant-caps:normal;font-variant-east-asian:normal;font-variant-ligatures:normal;font-variant-numeric:normal">Intuitive </tspan></text>
   <text transform="rotate(-45)" x="36.14653" y="110.90355" style="line-height:1.25" xml:space="preserve"><tspan x="36.14653" y="110.90355" fill="#cecece" font-family="'Helvetica Light'" font-size="3.1682px" stroke-width=".079206" style="font-variant-caps:normal;font-variant-east-asian:normal;font-variant-ligatures:normal;font-variant-numeric:normal">Versatile </tspan></text>
   <text transform="rotate(-45)" x="42.642647" y="118.61388" style="line-height:1.25" xml:space="preserve"><tspan x="42.642647" y="118.61388" fill="#cecece" font-family="'Helvetica Light'" font-size="3.1682px" stroke-width=".079206" style="font-variant-caps:normal;font-variant-east-asian:normal;font-variant-ligatures:normal;font-variant-numeric:normal">Engaging </tspan></text>
  </g>
 </g>
</svg>
